<?xml version="1.0" encoding="UTF-8" standalone="no"?>
<svg
   xmlns:dc="http://purl.org/dc/elements/1.1/"
   xmlns:cc="http://creativecommons.org/ns#"
   xmlns:rdf="http://www.w3.org/1999/02/22-rdf-syntax-ns#"
   xmlns:svg="http://www.w3.org/2000/svg"
   xmlns="http://www.w3.org/2000/svg"
   xmlns:sodipodi="http://sodipodi.sourceforge.net/DTD/sodipodi-0.dtd"
   xmlns:inkscape="http://www.inkscape.org/namespaces/inkscape"
   aria-hidden="true"
   focusable="false"
   data-prefix="fas"
   data-icon="phone"
   class="svg-inline--fa fa-phone fa-w-16"
   role="img"
   viewBox="0 0 512 512"
   version="1.1"
   id="svg5105"
   sodipodi:docname="phone-solid.svg"
   inkscape:version="0.92.3 (2405546, 2018-03-11)">
  <metadata
     id="metadata5111">
    <rdf:RDF>
      <cc:Work
         rdf:about="">
        <dc:format>image/svg+xml</dc:format>
        <dc:type
           rdf:resource="http://purl.org/dc/dcmitype/StillImage" />
      </cc:Work>
    </rdf:RDF>
  </metadata>
  <defs
     id="defs5109" />
  <sodipodi:namedview
     pagecolor="#ffffff"
     bordercolor="#666666"
     borderopacity="1"
     objecttolerance="10"
     gridtolerance="10"
     guidetolerance="10"
     inkscape:pageopacity="0"
     inkscape:pageshadow="2"
     inkscape:window-width="1508"
     inkscape:window-height="934"
     id="namedview5107"
     showgrid="false"
     inkscape:zoom="0.4609375"
     inkscape:cx="-14.101695"
     inkscape:cy="169.22034"
     inkscape:window-x="0"
     inkscape:window-y="0"
     inkscape:window-maximized="0"
     inkscape:current-layer="svg5105" />
  <path
     d="m 487.38939,493.3998 24,-104 c 2.6,-11.3 -3.3,-22.9 -13.9,-27.5 l -112,-48 c -9.8,-4.2 -21.3,-1.4 -28,6.9 l -49.6,60.6 c -76.7,-36 -140.5,-98.9 -177.2,-177.2 l 60.6,-49.6 c 8.3,-6.8 11.1,-18.2 6.9,-28 l -48,-111.999999 c -4.7,-10.7 -16.3,-16.6 -27.6,-14.00000002 L 18.589385,24.599801 c -10.7999998,2.5 -18.59999982,12.1 -18.59999982,23.4 0,256.099999 207.50000482,463.999999 464.00000482,463.999999 11.2,0 20.9,-7.7 23.4,-18.6 z"
     id="path5103"
     inkscape:connector-curvature="0"
     style="fill:#ffc000;stroke:none;stroke-opacity:1;fill-opacity:1" />
</svg>
