<?xml version="1.0" encoding="UTF-8" standalone="no"?>
<svg
   xmlns:dc="http://purl.org/dc/elements/1.1/"
   xmlns:cc="http://creativecommons.org/ns#"
   xmlns:rdf="http://www.w3.org/1999/02/22-rdf-syntax-ns#"
   xmlns:svg="http://www.w3.org/2000/svg"
   xmlns="http://www.w3.org/2000/svg"
   xmlns:sodipodi="http://sodipodi.sourceforge.net/DTD/sodipodi-0.dtd"
   xmlns:inkscape="http://www.inkscape.org/namespaces/inkscape"
   version="1.1"
   id="Layer_1"
   x="0px"
   y="0px"
   viewBox="0 0 512 512"
   style="enable-background:new 0 0 512 512;"
   xml:space="preserve"
   width="512px"
   height="512px"
   class=""
   sodipodi:docname="calculator_.svg"
   inkscape:version="0.92.3 (2405546, 2018-03-11)"><metadata
   id="metadata843"><rdf:RDF><cc:Work
       rdf:about=""><dc:format>image/svg+xml</dc:format><dc:type
         rdf:resource="http://purl.org/dc/dcmitype/StillImage" /><dc:title></dc:title></cc:Work></rdf:RDF></metadata><defs
   id="defs841" /><sodipodi:namedview
   pagecolor="#ffffff"
   bordercolor="#666666"
   borderopacity="1"
   objecttolerance="10"
   gridtolerance="10"
   guidetolerance="10"
   inkscape:pageopacity="0"
   inkscape:pageshadow="2"
   inkscape:window-width="1920"
   inkscape:window-height="1017"
   id="namedview839"
   showgrid="false"
   inkscape:zoom="1.65625"
   inkscape:cx="256"
   inkscape:cy="256"
   inkscape:window-x="-8"
   inkscape:window-y="-8"
   inkscape:window-maximized="1"
   inkscape:current-layer="Layer_1" /><g
   transform="matrix(1.09978,0,0,0.9998,-25.543733,0.0511973)"
   id="g836"><g
     id="g834">
	<g
   id="g832">
		<path
   d="M 419.068,0 H 92.933 C 80.081,0 69.661,10.42 69.661,23.273 v 139.636 108.603 108.609 108.606 c 0,12.851 10.42,23.273 23.273,23.273 H 201.54 310.146 419.067 c 12.853,0 23.273,-10.422 23.273,-23.273 V 162.909 23.273 C 442.341,10.42 431.921,0 419.068,0 Z M 178.267,465.455 h -62.061 v -62.061 h 62.061 z m 0,-108.606 h -62.061 v -62.064 h 62.061 z m 0,-108.61 h -62.061 v -62.057 h 62.061 z m 108.606,217.216 h -62.061 v -62.061 h 62.061 z m 0,-108.606 h -62.061 v -62.064 h 62.061 z m 0,-108.61 h -62.061 v -62.057 h 62.061 z M 201.539,139.636 H 116.206 V 46.545 h 279.588 v 93.091 h -85.648 z m 131.879,46.546 h 62.376 v 62.057 h -62.376 z m 62.377,279.273 H 333.42 v -85.333 -85.336 h 62.376 v 170.669 z"
   data-original="#000000"
   class="active-path"
   data-old_color="#000000"
   id="path830"
   inkscape:connector-curvature="0"
   style="fill:#333333" />
	</g>
</g></g> </svg>